<?xml version="1.0" encoding="UTF-8"?>
<svg id="FUNCIONARIO" width="64" height="64" viewBox="0 0 64 64" fill="none" xmlns="http://www.w3.org/2000/svg">
  <path d="M44.5002 15.5C44.2302 18.86 42.1902 21.4 40.5002 23.5C38.1902 26.37 35.8302 29.5 32.5002 29.5C29.1702 29.5 26.7602 26.4 24.5002 23.5C22.6102 21.07 20.7602 18.7 20.5002 15.5C20.0402 9.75 24.7402 1.5 32.5002 1.5C40.2602 1.5 44.9802 9.59 44.5002 15.5Z" stroke="black" stroke-width="2" stroke-miterlimit="10"/>
  <path d="M27.7299 10.0301C29.6799 12.5701 32.1499 14.6801 35.0699 16.0401C36.6599 16.7801 38.3199 17.3101 40.0899 17.0401C41.7699 16.7801 43.2699 15.9101 44.6999 15.0401C45.9399 14.2901 44.8099 12.3401 43.5599 13.1001C42.3099 13.8601 41.1399 14.6101 39.7499 14.8301C38.3599 15.0501 36.9799 14.4901 35.7499 13.8701C33.3899 12.6901 31.2799 10.9901 29.6699 8.89008C29.2999 8.40008 28.7099 8.16008 28.1299 8.49008C27.6499 8.76008 27.3599 9.55008 27.7299 10.0301Z" fill="black"/>
  <path d="M25.2802 11.1098C25.1902 11.4298 25.0902 11.7398 24.9802 12.0498C24.9302 12.1998 24.8702 12.3398 24.8102 12.4898C24.8702 12.3398 24.8102 12.4898 24.7802 12.5598C24.7502 12.6198 24.7202 12.6898 24.6902 12.7498C24.4102 13.3498 24.0902 13.9298 23.7202 14.4798C23.6302 14.6098 23.5402 14.7398 23.4502 14.8698C23.4102 14.9298 23.3702 14.9798 23.3302 15.0398C23.1302 15.3098 23.4002 14.9498 23.2802 15.0998C23.0702 15.3598 22.8602 15.6098 22.6302 15.8498C22.1802 16.3298 21.6902 16.7798 21.1702 17.1898C20.7002 17.5498 20.7602 18.3998 21.1702 18.7798C21.6602 19.2298 22.2602 19.1698 22.7602 18.7798C25.0202 17.0098 26.6702 14.4798 27.4502 11.7198C27.6102 11.1498 27.2502 10.4698 26.6602 10.3398C26.0702 10.2098 25.4502 10.5198 25.2802 11.1298V11.1098Z" fill="black"/>
  <path d="M42.7901 62.5H22.2201C19.6901 61.99 15.8101 60.87 11.8301 58.18C9.52007 56.62 7.09007 55.32 6.51007 53.5C5.56007 50.53 5.51007 49.5 7.51007 44.21C10.3701 36.64 14.1301 29.5 22.2201 29.5H42.7901C50.8801 29.5 54.6401 36.65 57.5001 44.21C59.5001 49.5 59.4501 50.53 58.5001 53.5C57.9201 55.32 55.4901 56.62 53.1801 58.18C49.1901 60.88 45.3201 62 42.7901 62.5Z" stroke="black" stroke-width="2" stroke-miterlimit="10"/>
  <path d="M5.5 62.5H58.5" stroke="black" stroke-width="2" stroke-miterlimit="10"/>
  <path d="M48.64 37.5H16.36C15.3328 37.5 14.5 38.3328 14.5 39.36V59.64C14.5 60.6672 15.3328 61.5 16.36 61.5H48.64C49.6672 61.5 50.5 60.6672 50.5 59.64V39.36C50.5 38.3328 49.6672 37.5 48.64 37.5Z" stroke="black" stroke-width="2" stroke-miterlimit="10"/>
  </svg>