<?xml version="1.0" encoding="UTF-8"?>
<svg id="FUNC_2" data-name="FUNC 2" xmlns="http://www.w3.org/2000/svg" viewBox="0 0 64 64">
  <defs>
    <style>
      .cls-1 {
        stroke-width: 2px;
      }

      .cls-1, .cls-2 {
        fill: none;
        stroke: #000;
        stroke-miterlimit: 10;
      }

      .cls-3 {
        fill: #000;
        stroke-width: 0px;
      }

      .cls-2 {
        stroke-width: 3px;
      }
    </style>
  </defs>
  <g>
    <path class="cls-1" d="M44.98,16.15c-.29,3.63-2.5,6.37-4.33,8.65-.57.71-1.15,1.44-1.74,2.13-1.98,2.35-4.13,4.36-6.91,4.36-2.62,0-4.72-1.77-6.59-3.95-.71-.81-1.4-1.69-2.07-2.54-2.04-2.63-4.05-5.2-4.33-8.65-.5-6.22,4.59-15.15,12.98-15.15s13.5,8.75,12.98,15.15Z"/>
    <path class="cls-3" d="M25.93,8.01c2.1,2.74,4.77,5,7.91,6.47,1.7.79,3.47,1.36,5.36,1.07s3.42-1.22,4.96-2.15c1.24-.75.11-2.7-1.14-1.94s-2.64,1.64-4.15,1.88-3.05-.37-4.4-1.04c-2.57-1.29-4.86-3.14-6.61-5.42-.37-.49-.96-.73-1.54-.4-.48.27-.77,1.06-.4,1.54h0Z"/>
    <path class="cls-3" d="M24.64,9.25c-.1.34-.2.69-.33,1.02-.06.16-.12.32-.18.47.06-.14-.02.04-.04.09-.03.07-.06.14-.09.21-.3.65-.65,1.27-1.05,1.87-.09.14-.19.28-.29.42-.04.06-.09.12-.13.18-.22.29.06-.08-.07.08-.22.28-.46.55-.7.81-.49.52-1.02,1-1.58,1.45-.47.36-.41,1.21,0,1.59.49.45,1.09.39,1.59,0,2.44-1.91,4.21-4.62,5.05-7.6.16-.57-.2-1.25-.79-1.38s-1.21.18-1.38.79h0Z"/>
  </g>
  <g>
    <path class="cls-1" d="M60,53.66c-.03-.34-.06-.61-.1-.85,0,0-.1-.81-.26-1.63-2.2-11.38-5.64-14.17-5.64-14.17-5.05-4.1-13.18-.2-15-4-.24-.49-1.69-3.86-2.29-3.9-.1,0-.71.53-1.71.95-.71.3-2.27.93-4.3.62-1.33-.2-2.37-.73-3.1-1.21-.15-.1-.29-.14-.41-.12-1.04.12-1.5,2.49-2.19,3.66-1.99,3.37-8.33-.12-13,3-3.54,2.36-4.63,7.52-6,14-.37,1.75-.57,3.14-.62,3.79-.27,3.1.12,10.43.43,12.45.06.38,53.51-.32,53.94-.63,1.05-3.36.7-7.3.26-11.95Z"/>
    <path class="cls-1" d="M24.5,33.5c-.12,5.49,3.78,9.81,8,9.48,3.88-.3,7.13-4.46,7-9.48"/>
    <path class="cls-2" d="M40,51.5h11"/>
  </g>
</svg>