<?xml version="1.0" encoding="UTF-8"?>
<svg id="Camada_29" data-name="Camada 29" xmlns="http://www.w3.org/2000/svg" viewBox="0 0 64 64">
  <defs>
    <style>
      .cls-1 {
        stroke-width: 5px;
      }

      .cls-1, .cls-2, .cls-3, .cls-4, .cls-5, .cls-6 {
        fill: none;
        stroke: #d7d7d7;
        stroke-miterlimit: 10;
      }

      .cls-2 {
        stroke-width: .75px;
      }

      .cls-3 {
        stroke-width: 2px;
      }

      .cls-4 {
        stroke-width: 4px;
      }

      .cls-5 {
        stroke-width: .25px;
      }

      .cls-6 {
        stroke-width: 3px;
      }
    </style>
  </defs>
  <g>
    <line class="cls-5" x1="18" y1="25" x2="46" y2="25"/>
    <path class="cls-5" d="M18,11.71v-5.53h28.11v5.53c0,.43-.01.86-.02,1.29"/>
    <path class="cls-2" d="M13.19,17.76v-5.76h37.81v5.76c0,.45-.01.9-.02,1.34"/>
    <path class="cls-4" d="M8,27.92v-8.92h47v8.92c0,.69-.02,1.39-.03,2.08"/>
    <polyline class="cls-3" points="15 43.5 15 48.5 49 48.5 49 44.5"/>
    <g>
      <path class="cls-6" d="M1.5,28.5C3.59,19.67,5.69,10.83,7.78,2h48.41c2.1,8.83,4.21,17.67,6.31,26.5"/>
      <path class="cls-1" d="M2.5,30.5v31h59v-31c-6.61-.17-13.22-.33-19.83-.5-.08.69-.73,5.81-5.17,8.5-4.39,2.66-9.9,1.38-13.23-1.5-2.9-2.51-3.66-5.82-3.87-7-5.63.17-11.26.33-16.9.5Z"/>
    </g>
  </g>
  <g>
    <line class="cls-6" x1="25" y1="11" x2="39" y2="11"/>
    <line class="cls-6" x1="24" y1="16.68" x2="40" y2="16.68"/>
    <line class="cls-6" x1="18" y1="25" x2="46" y2="25"/>
    <path class="cls-6" d="M18,11.71v-5.53h28.11v5.53c0,.43-.01.86-.02,1.29"/>
    <path class="cls-6" d="M13.19,17.76v-5.76h37.81v5.76c0,.45-.01.9-.02,1.34"/>
    <path class="cls-6" d="M8,27.92v-8.92h47v8.92c0,.69-.02,1.39-.03,2.08"/>
    <polyline class="cls-6" points="15 43.5 15 48.5 49 48.5 49 44.5"/>
    <g>
      <path class="cls-6" d="M1.5,28.5C3.59,19.67,5.69,10.83,7.78,2h48.41c2.1,8.83,4.21,17.67,6.31,26.5"/>
      <path class="cls-6" d="M2.5,30.5v31h59v-31c-6.61-.17-13.22-.33-19.83-.5-.08.69-.73,5.81-5.17,8.5-4.39,2.66-9.9,1.38-13.23-1.5-2.9-2.51-3.66-5.82-3.87-7-5.63.17-11.26.33-16.9.5Z"/>
    </g>
  </g>
</svg>