<?xml version="1.0" encoding="UTF-8"?>
<svg id="COLABORADOES" xmlns="http://www.w3.org/2000/svg" viewBox="0 0 64 64">
  <defs>
    <style>
      .cls-1 {
        stroke-width: 2px;
      }

      .cls-1, .cls-2 {
        fill: none;
        stroke: #d7d7d7;
        stroke-miterlimit: 10;
      }

      .cls-2 {
        stroke-width: 3px;
      }
    </style>
  </defs>
  <g>
    <path class="cls-2" d="M63,46.05v13.11c0,1.36-.28,2.65-.8,3.84h-18.18c.53-1.35.82-2.81.82-4.34v-16c0-1.46-.26-2.86-.74-4.15,1.33-1.1,2.96-1.87,4.73-2.16,0,0,.16-.74.42-1.49.28-.78.01-1.65-.67-2.13-1.85-1.28-3.08-3.65-3.08-6.35,0-4.08,2.8-7.38,6.25-7.38s6.25,3.3,6.25,7.38c0,2.61-2.32,5.54-3.31,6.77-.29.36-.41.81-.34,1.26l.32,1.94c4.71.79,8.33,4.85,8.33,9.7Z"/>
    <path class="cls-1" d="M58.42,43.59v18.85"/>
  </g>
  <g>
    <path class="cls-1" d="M39.34,39.66v23"/>
    <path class="cls-1" d="M24.72,39.72v23"/>
  </g>
  <g>
    <path class="cls-2" d="M44.84,42.66v16c0,1.53-.29,2.99-.82,4.34h-25.36c-.53-1.35-.82-2.81-.82-4.34v-16c0-1.4.24-2.74.68-3.99,1.44-4.04,5-7.11,9.32-7.84,0,0,.18-.91.5-1.82.33-.95,0-2.02-.81-2.6-2.21-1.56-3.69-4.45-3.69-7.75,0-4.97,3.36-9,7.5-9s7.5,4.03,7.5,9c0,3.19-2.79,6.76-3.98,8.27-.34.43-.48.98-.4,1.53l.38,2.37c4.27.72,7.78,3.71,9.26,7.68.48,1.29.74,2.69.74,4.15Z"/>
    <path class="cls-2" d="M18.66,63H1.48c-.26-.85-.39-1.75-.39-2.68v-13.11c0-4.85,3.61-8.91,8.33-9.7,0,0,.15-.74.42-1.49.28-.78,0-1.65-.68-2.13-1.84-1.28-3.07-3.65-3.07-6.35,0-4.08,2.8-7.38,6.25-7.38s6.25,3.3,6.25,7.38c0,2.62-2.33,5.54-3.32,6.77-.28.36-.4.81-.33,1.26l.31,1.94c1.17.19,2.27.59,3.27,1.16-.44,1.25-.68,2.59-.68,3.99v16c0,1.53.29,2.99.82,4.34Z"/>
    <path class="cls-1" d="M6.82,44.8v18.85"/>
  </g>
</svg>