<?xml version="1.0" encoding="UTF-8"?>
<svg id="Camada_1" data-name="Camada 1" xmlns="http://www.w3.org/2000/svg" viewBox="0 0 1080 1080">
  <defs>
    <style>
      .cls-1 {
        fill: #070707;
      }

      .cls-1, .cls-2 {
        stroke-width: 0px;
      }

      .cls-2 {
        fill: #fff;
      }
    </style>
  </defs>
  <circle class="cls-1" cx="552.05" cy="594.76" r="313.14"/>
  <path class="cls-2" d="M665.82,588.09c-10.55-14.45-26.04-35.63-59.79-51.98-10.37-5.06-20.52-10.54-30.82-15.71s-19.79-12.17-30.1-17.1c-2.22-1.06-3.95-2.21-6.13-3.35-4.88-2.55-5.33-6.57-5.99-11.55-.79-5.99-.95-12.06-.95-18.09,0-8.56,1.63-14.97,4.89-19.25,3.26-4.28,8.15-6.42,14.67-6.42,8.05,0,13.09,2.33,15.1,6.99,2.01,4.66,3.02,15.73,3.02,33.23v20.53h102.99v-21.96c0-19.01-1.01-32.99-3.02-41.92-2.01-8.93-7.77-18.63-17.26-29.09-9.49-10.45-23.12-18.87-40.85-25.24-10.9-3.91-23.22-6.62-36.97-8.13l-.39-31.48-44.67-.22.59,30.89c-18.64,1.37-35.41,5.05-50.32,11.08-19.28,7.8-32.94,18.87-41,33.23-8.06,14.36-12.08,36.65-12.08,66.88,0,21.3,3.74,39.69,11.22,55.19,7.48,15.5,28.29,32.75,62.43,51.76,40.66,22.44,59.19,37.67,62.56,43.05,3.26,5.19,4.15,14.68,4.15,32.74,0,13.12.59,20.44-1.78,24.89-2.46,4.62-4.91,5.7-13.15,5.7-7.67,0-12.8-3.04-15.39-9.13-2.59-6.08-3.88-19.3-3.88-39.64v-23.96h-102.99v18.25c0,31.56,3.93,55.14,11.8,70.73,7.86,15.59,22.3,27.95,43.3,37.08,13.04,5.66,27.72,9.57,44.04,11.72l.14,41.25h44.74l-.13-39.64c21.14-1.17,39.6-5.28,55.35-12.33,18.89-8.46,32.37-20.53,40.42-36.22,8.05-15.69,12.08-38.93,12.08-69.73,0-27.57-5.28-48.58-15.82-63.03Z"/>
</svg>