<?xml version="1.0" encoding="UTF-8"?>
<svg id="Camada_2" data-name="Camada 2" xmlns="http://www.w3.org/2000/svg" viewBox="0 0 1080 1080">
  <defs>
    <style>
      .cls-1 {
        fill: #facc15;
        stroke: #facc15;
        stroke-miterlimit: 10;
        stroke-width: 23px;
      }
    </style>
  </defs>
  <path class="cls-1" d="M797.54,840.9l-222.72-156.39c-3.89-2.73-9.1-2.65-12.91.21l-217.56,163.49c-8.5,6.39-20.22-1.83-17.09-12l79.91-260.14c1.4-4.55-.29-9.48-4.19-12.21l-222.72-156.39c-8.7-6.11-4.5-19.79,6.13-19.96l272.1-4.39c4.76-.08,8.92-3.21,10.32-7.75l79.91-260.14c3.12-10.17,17.43-10.4,20.88-.34l88.26,257.43c1.54,4.5,5.81,7.49,10.56,7.42l272.1-4.39c10.63-.17,15.28,13.37,6.77,19.76l-217.56,163.49c-3.8,2.86-5.33,7.84-3.79,12.34l88.26,257.43c3.45,10.06-7.99,18.66-16.7,12.55Z"/>
</svg>