<?xml version="1.0" encoding="UTF-8"?>
<svg id="Camada_2" data-name="Camada 2" xmlns="http://www.w3.org/2000/svg" viewBox="0 0 1080 1080">
  <defs>
    <style>
      .cls-1 {
        fill: none;
      }

      .cls-1, .cls-2 {
        stroke-width: 0px;
      }

      .cls-2 {
        fill: #fff;
      }
    </style>
  </defs>
  <g>
    <path class="cls-1" d="M262,857.17c-2.66,0-4.83-2.17-4.83-4.83V212.78c0-2.66,2.17-4.83,4.83-4.83h326.85l2.41,134.2c.28,15.43,12.58,27.76,28.02,28.07l135.55,2.72v479.4c0,2.66-2.17,4.83-4.83,4.83h-488Z"/>
    <path class="cls-2" d="M586.4,210.45l2.37,131.75c.3,16.78,13.68,30.19,30.46,30.53l133.1,2.67v476.95c0,1.28-1.05,2.33-2.33,2.33h-488c-1.28,0-2.33-1.05-2.33-2.33V212.78c0-1.28,1.05-2.33,2.33-2.33h324.4M591.31,205.45h-329.31c-4.05,0-7.33,3.28-7.33,7.33v639.56c0,4.05,3.28,7.33,7.33,7.33h488c4.05,0,7.33-3.28,7.33-7.33v-481.85l-138-2.77c-14.02-.28-25.31-11.6-25.57-25.62l-2.46-136.66h0Z"/>
  </g>
  <g>
    <path class="cls-2" d="M610.33,641.89l-52-56.59-52.3,104.71c-1.22,2.96,1.86,5.85,4.79,4.51l99.51-52.63Z"/>
    <g>
      <g>
        <polygon class="cls-1" points="566.2 585.99 780.92 382.68 824.13 425.27 610.53 633.32 566.2 585.99"/>
        <path class="cls-2" d="M780.83,391.02l34.72,34.23-204.83,199.51-36.07-38.51,206.17-195.23M781,374.33l-223.26,211.41,52.59,56.15,222.37-216.59-51.7-50.96h0Z"/>
      </g>
      <g>
        <path class="cls-1" d="M786.58,377.65l23.43-22.46c2.72-2.6,6.35-4.04,10.23-4.04s7.51,1.44,10.23,4.04l23.39,22.42c2.65,2.54,4.11,5.9,4.11,9.45s-1.46,6.91-4.11,9.45l-23.8,22.81-43.47-41.67Z"/>
        <path class="cls-2" d="M820.24,357.15c2.32,0,4.48.84,6.08,2.37l23.39,22.42c1.46,1.4,2.26,3.21,2.26,5.12s-.8,3.72-2.26,5.12l-19.65,18.83-34.8-33.36,18.92-18.13c1.6-1.53,3.75-2.37,6.08-2.37M820.24,345.15c-5.2,0-10.41,1.9-14.38,5.71l-27.95,26.79,52.14,49.98,27.95-26.79c7.94-7.61,7.94-19.95,0-27.56l-23.39-22.42c-3.97-3.81-9.17-5.71-14.38-5.71h0Z"/>
      </g>
      <path class="cls-1" d="M560.11,601.63l-30.9,64.48c-.98,2.04,1.13,4.18,3.18,3.24l65.32-29.81c2.44-1.11,3.01-4.33,1.09-6.21l-33.37-32.64c-1.63-1.59-4.33-1.11-5.32.94Z"/>
    </g>
  </g>
  <g>
    <path class="cls-1" d="M608.91,360.08c-1.92-.85-3.64-2-5.13-3.43-3.67-3.53-4.94-7.87-5.38-10.47l1.33-132.08,2.7.05,135.35,147.6-128.86-1.66Z"/>
    <path class="cls-2" d="M608.04,232.83l110.18,120.15-107.17-1.38c-.5-.32-.96-.68-1.38-1.09-1.69-1.62-2.43-3.65-2.76-5.11l1.13-112.57M591.31,205.45l-1.42,141.33c.36,2.61,1.74,9.99,8,16,3.39,3.26,6.97,4.92,9.33,5.78l150.11,1.93-151.11-164.78-14.91-.26h0Z"/>
  </g>
</svg>