<?xml version="1.0" encoding="UTF-8"?>
<svg id="Camada_2" data-name="Camada 2" xmlns="http://www.w3.org/2000/svg" viewBox="0 0 1080 1080">
  <defs>
    <style>
      .cls-1 {
        fill: #d7d7d7;
        stroke-width: 0px;
      }
    </style>
  </defs>
  <path class="cls-1" d="M862.36,577.69c-18.36-11.74-36.71-23.48-55.07-35.23-1.39-.89-2.19-2.48-2.04-4.12.66-7.61,1.03-16.03.86-25.12-.18-9.97-.97-19.13-2.07-27.31-.22-1.66.52-3.31,1.91-4.26l51.11-35.01c1.77-1.21,2.43-3.51,1.57-5.47l-42.34-96.71c-.88-2-3.07-3.07-5.18-2.54-21.1,5.35-42.2,10.7-63.3,16.04-1.78.45-3.67-.23-4.73-1.73-3.99-5.66-9.51-12.38-16.97-19.02-6.87-6.11-13.6-10.57-19.31-13.79-1.66-.93-2.52-2.83-2.17-4.7l11.68-62.52c.4-2.12-.78-4.22-2.8-4.99l-98.03-37.38c-1.97-.75-4.2-.02-5.34,1.75l-36.12,56c-.9,1.39-2.49,2.18-4.15,2.02-8.12-.76-17.38-1.11-27.55-.62-7.72.37-14.83,1.18-21.25,2.21-1.69.27-3.39-.46-4.36-1.87l-36.7-53.23c-1.23-1.79-3.58-2.43-5.55-1.51l-94.14,43.75c-1.93.9-2.96,3.04-2.45,5.11,4.97,20.22,9.94,40.44,14.91,60.65.4,1.62-.14,3.34-1.4,4.43-6.21,5.36-12.83,11.7-19.5,19.13-4.7,5.24-8.84,10.37-12.49,15.27-.95,1.27-2.48,1.96-4.06,1.8l-66.25-6.92c-2.05-.21-3.98,1-4.67,2.95l-34.98,98.84c-.69,1.95.05,4.11,1.78,5.24,17.52,11.32,35.05,22.65,52.57,33.97,1.37.88,2.15,2.44,2.03,4.07-.56,7.25-.83,15.26-.6,23.9.26,9.44,1.08,18.11,2.19,25.86.24,1.68-.51,3.35-1.92,4.3l-52.88,35.7c-1.82,1.23-2.47,3.6-1.55,5.58l44,94.36c.88,1.89,2.95,2.91,4.98,2.48,20.94-4.49,41.87-8.99,62.81-13.48,1.66-.36,3.38.26,4.43,1.6,4.14,5.29,9.05,10.95,14.83,16.7,7.48,7.45,14.85,13.48,21.54,18.33,1.37,1,2.05,2.69,1.76,4.36l-10.75,62.08c-.36,2.09.8,4.15,2.78,4.92l98.78,38.29c1.93.75,4.13.07,5.3-1.64,11.65-17.03,23.3-34.06,34.95-51.08.95-1.39,2.61-2.12,4.28-1.9,6.62.89,14.68,1.42,23.81.86,9.54-.58,17.8-2.2,24.48-3.99,1.78-.48,3.67.17,4.76,1.65l36.36,49.19c1.23,1.67,3.45,2.27,5.36,1.44l97.62-42.15c1.98-.86,3.07-3.01,2.58-5.11-5.07-21.75-10.13-43.49-15.2-65.24-.38-1.63.18-3.33,1.46-4.41,6.5-5.47,13.55-12.17,20.59-20.27,4.5-5.18,8.4-10.26,11.77-15.07.97-1.39,2.66-2.1,4.33-1.83l62.8,9.89c2.07.33,4.08-.83,4.85-2.78l37.8-96.36c.78-1.98.05-4.24-1.75-5.39ZM555.67,662.33c-78.79,0-142.67-63.87-142.67-142.67s63.87-142.67,142.67-142.67,142.67,63.87,142.67,142.67-63.87,142.67-142.67,142.67Z"/>
</svg>