<?xml version="1.0" encoding="UTF-8"?>
<svg id="CONFIGURACAO" xmlns="http://www.w3.org/2000/svg" viewBox="0 0 64 64">
  <defs>
    <style>
      .cls-1 {
        fill: none;
        stroke: #d7d7d7;
        stroke-miterlimit: 10;
        stroke-width: 3px;
      }
    </style>
  </defs>
  <ellipse class="cls-1" cx="31.21" cy="32.32" rx="11.02" ry="10.8"/>
  <path class="cls-1" d="M60.01,42.57l-3.25,5.49c-.88,1.49-2.83,2.02-4.35,1.15l-4.44-2.52c-2.63,2.86-6,5.1-9.93,6.32v5.33c0,2.18-1.8,3.94-4.02,3.94h-4.81c-2.22,0-4.02-1.76-4.02-3.94v-5.1c-3.16-.86-6.08-2.41-8.56-4.48l-3.87,2.18c-1.91,1.08-4.33.43-5.43-1.44l-2.44-4.14c-1.1-1.87-.46-4.25,1.45-5.33l3.34-1.89c-.17-.56-.29-1.13-.42-1.73-.79-3.89-.48-7.76.72-11.27l-4.79-2.7c-1.52-.86-2.06-2.77-1.18-4.27l3.25-5.51c.88-1.49,2.83-2,4.35-1.13l5.78,3.28c1.84-1.4,3.91-2.56,6.19-3.35v-5.8c0-2.18,1.8-3.94,4.02-3.94h4.81c2.22,0,4.02,1.76,4.02,3.94v5.08c3.38.77,6.5,2.32,9.13,4.48l4.92-2.79c1.89-1.08,4.33-.45,5.43,1.42l2.44,4.14c1.1,1.87.44,4.27-1.45,5.35l-4.22,2.39c.2.67.37,1.33.51,2.03.51,2.52.57,5.02.22,7.44l5.44,3.08c1.52.86,2.04,2.79,1.18,4.28Z"/>
</svg>