<?xml version="1.0" encoding="UTF-8"?>
<svg id="USUÃRIO" xmlns="http://www.w3.org/2000/svg" viewBox="0 0 64 64">
  <defs>
    <style>
      .cls-1 {
        fill: #d7d7d7;
        stroke-width: 0px;
      }
    </style>
  </defs>
  <path class="cls-1" d="M21.59,30.03c-.71-.09-1.3.02-1.64.11-1.15.28-2.03,1.01-3.36,1.97-1.8,1.3-4.48,3.68-7,8.32-2.11,3.89-8.21,15.06-4.5,20.28,3.83,5.39,47.35,4.69,52.78.17.58-.48.89-.87,1.02-1.06,3.49-5.09-1.46-15.84-5.3-20.44-2.25-2.7-8.52-8.88-9.59-9.38-.94-.44-1.96-.12-2.41.03-1.79.59-2.26,1.7-3.59,2.97-2.09,1.99-5.12,2-6,2-.55,0-3.54-.07-6.11-2-1.73-1.3-2.41-2.74-4.3-2.97Z"/>
  <ellipse class="cls-1" cx="32" cy="14" rx="13.5" ry="14"/>
</svg>