<?xml version="1.0" encoding="UTF-8"?>
<svg id="Camada_1" data-name="Camada 1" xmlns="http://www.w3.org/2000/svg" viewBox="0 0 1080 1080">
  <defs>
    <style>
      .cls-1 {
        fill: #007bff;
        stroke-width: 0px;
      }

      .cls-2 {
        fill: none;
        stroke: #007bff;
        stroke-miterlimit: 10;
        stroke-width: 51px;
      }
    </style>
  </defs>
  <path class="cls-1" d="M561,389c-75.11,0-136,60.89-136,136s60.89,136,136,136,136-60.89,136-136-60.89-136-136-136ZM608.78,518.33c-18.78,0-34-15.22-34-34s15.22-34,34-34,34,15.22,34,34-15.22,34-34,34Z"/>
  <path class="cls-2" d="M245.89,524.41c15.6-19.7,117.38-134.83,301.04-142.81,206.86-9,336.33,129.73,348.44,145.19-13.5,17.11-127.83,135.23-325.04,134.22-196.47-1.01-310.97-119.25-324.44-136.59Z"/>
</svg>