<?xml version="1.0" encoding="UTF-8"?>
<svg id="Camada_2" data-name="Camada 2" xmlns="http://www.w3.org/2000/svg" viewBox="0 0 1080 1080">
  <defs>
    <style>
      .cls-1 {
        fill: #d7d7d7;
      }

      .cls-1, .cls-2 {
        stroke-width: 0px;
      }

      .cls-2 {
        fill: #000;
      }
    </style>
  </defs>
  <path class="cls-1" d="M775.55,423.82v481.85c0,15.07-12.26,27.33-27.33,27.33h-488c-15.07,0-27.33-12.26-27.33-27.33V266.11c0-15.07,12.26-27.33,27.33-27.33h329.31l.17.17,19.83,19.47.11,6.29-5.2-5.67-14.91-.26-1.42,141.33c.36,2.61,1.74,9.99,8,16,3.39,3.26,6.98,4.92,9.33,5.78l150.11,1.93-18.68-20.37,19.08.38,11.83,12.07,7.77,7.92Z"/>
  <path class="cls-1" d="M755.95,403.83l-19.08-.38,18.68,20.37-150.11-1.93c-2.35-.86-5.94-2.52-9.33-5.78-6.26-6.01-7.64-13.39-8-16l1.42-141.33,14.91.26,5.2,5.67-.11-6.29-19.83-19.47-20.17,19.63-1.42,141.33.19,2.95c1.47,10.61,6.43,20.44,13.96,27.68,4.68,4.49,10.18,7.91,16.36,10.15l6.57,1.2,150.1,1.93,12.49-27.92-11.83-12.07ZM617.96,401.06l118.91,2.39-127.23-138.74,2.35,130.37c.06,3.29,2.68,5.91,5.97,5.98Z"/>
  <path class="cls-1" d="M736.87,403.45l-118.91-2.39c-3.29-.07-5.91-2.69-5.97-5.98l-2.35-130.37,127.23,138.74Z"/>
  <path class="cls-2" d="M314.47,506.36h0c.36,8.19,7.09,14.66,15.29,14.69l357.83,1.23c8.01.03,14.69-6.1,15.36-14.08l.1-1.23c.75-8.95-6.32-16.63-15.31-16.63h-357.93c-8.74,0-15.72,7.29-15.34,16.03Z"/>
  <path class="cls-2" d="M314.47,607.69h0c.36,8.19,7.09,14.66,15.29,14.69l357.83,1.23c8.01.03,14.69-6.1,15.36-14.08l.1-1.23c.75-8.95-6.32-16.63-15.31-16.63h-357.93c-8.74,0-15.72,7.29-15.34,16.03Z"/>
  <path class="cls-2" d="M314.47,709.03h0c.36,8.19,7.09,14.66,15.29,14.69l357.83,1.23c8.01.03,14.69-6.1,15.36-14.08l.1-1.23c.75-8.95-6.32-16.63-15.31-16.63h-357.93c-8.74,0-15.72,7.29-15.34,16.03Z"/>
  <path class="cls-2" d="M314.47,810.36h0c.36,8.19,7.09,14.66,15.29,14.69l357.83,1.23c8.01.03,14.69-6.1,15.36-14.08l.1-1.23c.75-8.95-6.32-16.63-15.31-16.63h-357.93c-8.74,0-15.72,7.29-15.34,16.03Z"/>
</svg>