<?xml version="1.0" encoding="UTF-8"?>
<svg id="Camada_1" data-name="Camada 1" xmlns="http://www.w3.org/2000/svg" viewBox="0 0 1080 1080">
  <defs>
    <style>
      .cls-1 {
        fill: #DC2626;
      }

      .cls-1, .cls-2 {
        stroke-width: 0px;
      }

      .cls-2 {
        fill: #fff;
      }
    </style>
  </defs>
  <path class="cls-1" d="M272.89,366.44c9.33-2.67,467.15-.11,467.15-.11l-29.28,459.54c-1.15,18.07-16.17,32.12-34.28,32.07l-342.13-1c-18.08-.05-33.01-14.15-34.08-32.2l-27.38-458.3Z"/>
  <rect class="cls-2" x="490.19" y="423.22" width="33.63" height="362.22" rx="12" ry="12"/>
  <rect class="cls-2" x="375.81" y="423.22" width="33.63" height="362.22" rx="12" ry="12" transform="translate(-23.82 16.16) rotate(-2.29)"/>
  <rect class="cls-2" x="439.67" y="589.3" width="362.22" height="33.63" rx="12" ry="12" transform="translate(-11.13 1200.61) rotate(-87.57)"/>
  <path class="cls-1" d="M242.33,336.56l529.78,1.19v-59.63c0-23.01-18.69-41.64-41.7-41.57l-447.15,1.44c-23.05.07-41.64,18.89-41.43,41.94l.51,56.63Z"/>
  <path class="cls-1" d="M435.44,167.67h145.33c20.48,0,37.11,16.63,37.11,37.11v74c0,6.62-5.38,12-12,12h-195.56c-6.62,0-12-5.38-12-12v-74c0-20.48,16.63-37.11,37.11-37.11Z"/>
  <path class="cls-2" d="M449,194.33h120c6.62,0,12,5.38,12,12v26.67c0,1.23-1,2.22-2.22,2.22h-139.56c-1.23,0-2.22-1-2.22-2.22v-26.67c0-6.62,5.38-12,12-12Z"/>
</svg>