<?xml version="1.0" encoding="UTF-8"?>
<svg id="Camada_2" data-name="Camada 2" xmlns="http://www.w3.org/2000/svg" viewBox="0 0 1080 1080">
  <defs>
    <style>
      .cls-1 {
        stroke-width: 0px;
      }

      .cls-1, .cls-2 {
        fill: #000;
      }

      .cls-2 {
        stroke: #fff;
        stroke-miterlimit: 10;
      }
    </style>
  </defs>
  <g>
    <path class="cls-1" d="M317.8,403.52c0,8.85,2.32,17.15,6.39,24.33l-55.38-.19c-12.7-.05-23.11-10.05-23.67-22.72-.59-13.52,10.21-24.8,23.74-24.8h54.76c-3.73,6.96-5.85,14.93-5.85,23.37Z"/>
    <path class="cls-1" d="M846.25,405.89l-.15,1.9c-1.04,12.34-11.37,21.83-23.76,21.78l-412.09-1.42c4.18-7.25,6.56-15.65,6.56-24.63,0-8.45-2.12-16.41-5.85-23.37h411.61c13.91,0,24.83,11.88,23.68,25.74Z"/>
    <path class="cls-1" d="M460.95,536.91c-4.46,7.44-7.02,16.13-7.02,25.43,0,8.2,2,15.93,5.52,22.74l-190.64-.67c-12.7-.03-23.11-10.04-23.67-22.72-.59-13.5,10.21-24.78,23.74-24.78h192.06Z"/>
    <path class="cls-1" d="M846.25,562.64l-.15,1.9c-1.04,12.36-11.37,21.84-23.76,21.8l-275.08-.96c3.62-6.88,5.68-14.73,5.68-23.03,0-9.3-2.57-17.99-7.02-25.43h276.66c13.91,0,24.83,11.88,23.68,25.72Z"/>
    <path class="cls-1" d="M366.81,693.66c-6.17,8.24-9.81,18.49-9.81,29.56,0,6.45,1.24,12.61,3.48,18.27l-91.67-.31c-12.7-.05-23.11-10.05-23.67-22.72-.59-13.52,10.21-24.8,23.74-24.8h97.92Z"/>
    <path class="cls-1" d="M846.25,719.38l-.15,1.92c-1.04,12.34-11.37,21.83-23.76,21.78l-369.95-1.27c2.34-5.74,3.62-12.02,3.62-18.59,0-11.08-3.64-21.32-9.81-29.56h376.37c13.91,0,24.83,11.88,23.68,25.72Z"/>
  </g>
  <circle class="cls-2" cx="368" cy="402.84" r="43.31"/>
  <circle class="cls-2" cx="504.12" cy="561.66" r="43.31"/>
  <circle class="cls-2" cx="406.5" cy="723.91" r="43.31"/>
</svg>